<?xml version="1.0" encoding="utf-8"?>
<!-- Svg Vector Icons : http://www.onlinewebfonts.com/icon -->
<!DOCTYPE svg PUBLIC "-//W3C//DTD SVG 1.1//EN" "http://www.w3.org/Graphics/SVG/1.1/DTD/svg11.dtd">
<svg version="1.1" xmlns="http://www.w3.org/2000/svg" xmlns:xlink="http://www.w3.org/1999/xlink" x="0px" y="0px" viewBox="0 0 1000 1000" enable-background="new 0 0 1000 1000" xml:space="preserve">
<metadata> Svg Vector Icons : http://www.onlinewebfonts.com/icon </metadata>
<g><path d="M149.1,745.8c0,19.4,15.7,35,35,35s35-15.7,35-35s-15.7-35-35-35S149.1,726.5,149.1,745.8z"/><path d="M499.5,255.3c0,19.4-15.7,35-35,35H185.2c-19.4,0-35-15.7-35-35l0,0c0-19.4,15.7-35,35-35h279.2C483.8,220.2,499.5,235.9,499.5,255.3L499.5,255.3z"/><path d="M499.5,394.3c0,19.4-15.7,35-35,35H185.2c-19.4,0-35-15.7-35-35l0,0c0-19.4,15.7-35,35-35h279.2C483.8,359.3,499.5,375,499.5,394.3L499.5,394.3z"/><path d="M569.5,822v29H80.1V151.3h489.5v383.6c20.8-10.4,44.1-19.1,70.1-24.9V150.2c0-38.7-31.4-70.1-70.1-70.1H80.1c-38.7,0-70.1,31.4-70.1,70.1v699.7c0,38.7,31.4,70.1,70.1,70.1h489.5c38.7,0,70.1-31.4,70.1-70.1v-4.9C613.5,839.8,590.2,831.8,569.5,822z"/><path d="M710.8,573.4c-57.5,0-104,46.5-104,104c0,57.5,46.5,104,104,104s104-46.5,104-104C814.8,619.9,768.3,573.4,710.8,573.4z M710.8,712.4c-19.4,0-35-15.7-35-35c0-19.4,15.7-35,35-35c19.4,0,35,15.7,35,35C745.8,696.8,730.2,712.4,710.8,712.4z"/><path d="M716.3,500.5C502.8,500.5,425,679.1,425,679.1s72.3,173.4,282.5,173.4S990,679.1,990,679.1S922.3,500.5,716.3,500.5z M706.9,782.4C545.6,782.4,498.7,678,498.7,678s51.1-104.7,214.9-104.7c158.2,0,207.9,106.1,207.9,106.1S868.3,782.4,706.9,782.4z"/></g>
</svg>