<?xml version="1.0" encoding="iso-8859-1"?>
<!-- Generator: Adobe Illustrator 19.0.0, SVG Export Plug-In . SVG Version: 6.00 Build 0)  -->
<svg version="1.1" id="Capa_1" xmlns="http://www.w3.org/2000/svg" xmlns:xlink="http://www.w3.org/1999/xlink" x="0px" y="0px"
	 viewBox="0 0 480 480" style="enable-background:new 0 0 480 480;" xml:space="preserve">
<g>
	<g>
		<path d="M472,352h-8V80c0-8.837-7.163-16-16-16H40c-13.255,0-24,10.745-24,24v264H8c-4.418,0-8,3.582-8,8v16
			c0.026,22.08,17.92,39.974,40,40h400c22.08-0.026,39.974-17.92,40-40v-16C480,355.582,476.418,352,472,352z M32,88
			c0-4.418,3.582-8,8-8h408v272H32V88z M280,368v8h-80v-8H280z M464,376c0,13.255-10.745,24-24,24H40c-13.255,0-24-10.745-24-24v-8
			h168v16c0,4.418,3.582,8,8,8h96c4.418,0,8-3.582,8-8v-16h168V376z"/>
	</g>
</g>
<g>
	<g>
		<path d="M40,88v256h400V88H40z M424,328H56V104h368V328z"/>
	</g>
</g>
<g>
</g>
<g>
</g>
<g>
</g>
<g>
</g>
<g>
</g>
<g>
</g>
<g>
</g>
<g>
</g>
<g>
</g>
<g>
</g>
<g>
</g>
<g>
</g>
<g>
</g>
<g>
</g>
<g>
</g>
</svg>
